<?xml version="1.0" encoding="UTF-8" standalone="no"?>
<!-- Created with Inkscape (http://www.inkscape.org/) -->

<svg
   xmlns:dc="http://purl.org/dc/elements/1.1/"
   xmlns:cc="http://creativecommons.org/ns#"
   xmlns:rdf="http://www.w3.org/1999/02/22-rdf-syntax-ns#"
   xmlns:svg="http://www.w3.org/2000/svg"
   xmlns="http://www.w3.org/2000/svg"
   xmlns:sodipodi="http://sodipodi.sourceforge.net/DTD/sodipodi-0.dtd"
   xmlns:inkscape="http://www.inkscape.org/namespaces/inkscape"
   width="512"
   height="512"
   viewBox="0 0 512.00001 512.00001"
   id="svg2"
   version="1.1"
   inkscape:version="0.91 r13725"
   sodipodi:docname="RESTaurant.svg">
  <defs
     id="defs4" />
  <sodipodi:namedview
     id="base"
     pagecolor="#ffffff"
     bordercolor="#666666"
     borderopacity="1.0"
     inkscape:pageopacity="0.0"
     inkscape:pageshadow="2"
     inkscape:zoom="0.98994949"
     inkscape:cx="267.82243"
     inkscape:cy="248.17279"
     inkscape:document-units="px"
     inkscape:current-layer="layer1"
     showgrid="false"
     units="px"
     inkscape:window-width="679"
     inkscape:window-height="729"
     inkscape:window-x="683"
     inkscape:window-y="18"
     inkscape:window-maximized="0" />
  <metadata
     id="metadata7">
    <rdf:RDF>
      <cc:Work
         rdf:about="">
        <dc:format>image/svg+xml</dc:format>
        <dc:type
           rdf:resource="http://purl.org/dc/dcmitype/StillImage" />
        <dc:title />
      </cc:Work>
    </rdf:RDF>
  </metadata>
  <g
     inkscape:label="Layer 1"
     inkscape:groupmode="layer"
     id="layer1"
     transform="translate(0,-540.36216)">
    <g
       transform="scale(0.85480942,1.1698514)"
       style="font-style:normal;font-weight:normal;font-size:384.70126343px;line-height:125%;font-family:Sans;letter-spacing:0px;word-spacing:0px;fill:#000000;fill-opacity:1;stroke:none;stroke-width:1px;stroke-linecap:butt;stroke-linejoin:miter;stroke-opacity:1"
       id="text3344">
      <path
         d="m 112.29765,843.4366 c 0,-4.23171 -3.46231,-7.69402 -8.07873,-7.69402 -10.386929,0 -25.77498,-5.77052 -25.77498,-26.92909 l 0,-56.93579 c 0,-26.92908 -17.696258,-36.93132 -30.006699,-40.77833 11.92574,-4.61642 30.006699,-15.38805 30.006699,-40.77833 l 0,-56.55109 c 0,-21.54327 15.388051,-27.31379 25.39028,-27.31379 5.00112,0 8.46343,-3.46231 8.46343,-7.69402 0,-4.61642 -3.84701,-7.69403 -8.07873,-7.69403 -27.313785,0 -41.547732,16.54215 -41.547732,42.70184 l 0,56.55109 c 0,24.23618 -25.005582,32.6996 -39.62423,32.6996 -4.616415,0 -8.078726,3.07761 -8.078726,8.07873 0,4.61642 2.692908,7.30932 8.078726,7.30932 14.618648,0 39.62423,8.84813 39.62423,33.46901 l 0,56.93579 c 0,25.77499 14.233947,42.31714 41.547732,42.31714 4.61642,0 8.07873,-3.07761 8.07873,-7.69403 z"
         style="font-style:normal;font-variant:normal;font-weight:normal;font-stretch:normal;font-family:FreeMono;-inkscape-font-specification:FreeMono"
         id="path3430" />
      <path
         d="m 489.00435,843.4366 c 0,4.61642 3.46231,7.69403 8.07872,7.69403 27.31379,0 41.54774,-16.54215 41.54774,-42.31714 l 0,-56.93579 c 0,-24.62088 25.00558,-33.46901 39.62423,-33.46901 5.38582,0 8.07873,-2.6929 8.07873,-7.30932 0,-5.00112 -3.46232,-8.07873 -8.07873,-8.07873 -14.61865,0 -39.62423,-8.46342 -39.62423,-32.6996 l 0,-56.55109 c 0,-26.15969 -14.23395,-42.70184 -41.54774,-42.70184 -4.23171,0 -8.07872,3.07761 -8.07872,7.69403 0,4.23171 3.46231,7.69402 8.46342,7.69402 10.00224,0 25.39029,5.77052 25.39029,27.31379 l 0,56.55109 c 0,25.39028 18.08096,36.16191 30.0067,40.77833 -12.31044,3.84701 -30.0067,13.84925 -30.0067,40.77833 l 0,56.93579 c 0,21.15857 -15.38805,26.92909 -25.77499,26.92909 -4.61641,0 -8.07872,3.46231 -8.07872,7.69402 z"
         style="font-style:normal;font-variant:normal;font-weight:normal;font-stretch:normal;font-family:FreeMono;-inkscape-font-specification:FreeMono"
         id="path3432" />
    </g>
    <g
       style="font-style:normal;font-weight:normal;font-size:108.06311035px;line-height:125%;font-family:Sans;letter-spacing:0px;word-spacing:0px;fill:#000000;fill-opacity:1;stroke:none;stroke-width:1px;stroke-linecap:butt;stroke-linejoin:miter;stroke-opacity:1"
       id="text3348">
      <path
         d="m 139.1218,739.40075 6.26766,0 c 4.21446,0 8.53699,1.29676 10.91438,3.24189 3.13383,2.48546 4.75477,6.37573 5.51121,13.50789 l 0.54032,5.51122 c 1.29676,12.21113 5.29509,17.18204 13.83208,17.18204 8.86117,0 13.07564,-5.94348 13.39982,-18.91105 l -4.53865,0 c -0.43225,7.45636 -1.72901,10.69825 -4.64671,10.69825 -2.48545,0 -3.56608,-1.83707 -5.40316,-9.29343 l -1.72901,-6.80797 c -2.37738,-9.94181 -6.59185,-14.48046 -15.02077,-16.64172 15.56109,-2.16127 23.01744,-8.42893 23.01744,-19.3433 0,-12.31919 -10.37405,-19.3433 -28.52866,-19.3433 l -37.38983,0 0,5.07897 1.94513,0 c 8.75312,0 9.72568,0.54032 9.72568,5.07897 l 0,3.13383 0,51.5461 0,3.02577 c 0,4.53865 -0.97256,5.07896 -9.72568,5.07896 l -1.94513,0 0,5.07897 35.4447,0 0,-5.07897 -1.94514,0 c -8.75311,0 -9.72568,-0.54031 -9.72568,-5.07896 l 0,-3.02577 0,-24.63839 z m 0,-5.07897 0,-23.77388 c 0,-4.32252 0.10806,-4.64671 1.1887,-5.51122 0.8645,-0.64838 1.62094,-0.75644 6.26766,-0.75644 l 5.8354,0 c 10.69825,0 15.56109,4.53865 15.56109,14.37239 0,5.51122 -1.40482,9.72568 -4.21446,11.99501 -2.70158,2.26932 -7.56442,3.67414 -12.75145,3.67414 l -11.88694,0 z"
         style="font-style:normal;font-variant:normal;font-weight:500;font-stretch:normal;font-family:'Century Schoolbook L';-inkscape-font-specification:'Century Schoolbook L Medium'"
         id="path3403" />
      <path
         d="m 258.71052,699.20127 -64.94593,0 0,5.07897 1.94514,0 c 8.75311,0 9.72568,0.54032 9.72568,5.07897 l 0,3.13383 0,51.43804 0,3.13383 c 0,4.53865 -0.97257,5.07896 -9.72568,5.07896 l -1.94514,0 0,5.07897 66.35075,0 2.16126,-28.85285 -4.75477,0 c -1.40482,7.56442 -3.89028,14.26433 -6.48379,17.39816 -3.34996,4.32252 -9.50955,6.37572 -18.58686,6.37572 l -7.13216,0 c -3.24189,0 -5.94347,-0.64838 -6.91604,-1.62094 -0.75644,-0.64838 -0.86451,-1.29676 -0.86451,-3.56609 l 0,-27.55609 2.16127,0 c 6.59185,0 9.29342,0.64838 11.45469,2.9177 2.80964,2.80965 3.89027,6.26767 4.10639,12.64339 l 5.07897,0 0,-35.4447 -5.07897,0 c -0.54031,10.59018 -4.86284,14.80464 -15.12883,14.80464 l -2.59352,0 0,-24.63838 c 0,-4.64672 0.97257,-5.40316 6.80798,-5.40316 l 5.61928,0 c 9.50956,0 14.15627,0.97257 17.83042,3.99833 3.56608,2.80965 6.15959,8.86118 7.78054,18.58686 l 4.64671,0 -1.51288,-27.66416 z"
         style="font-style:normal;font-variant:normal;font-weight:500;font-stretch:normal;font-family:'Century Schoolbook L';-inkscape-font-specification:'Century Schoolbook L Medium'"
         id="path3405" />
      <path
         d="m 327.7257,698.5529 -3.99833,0 -4.32253,6.48378 c -5.07896,-4.86284 -11.995,-7.45635 -19.66748,-7.45635 -14.15627,0 -23.66582,9.0773 -23.66582,22.58519 0,11.77888 5.8354,17.61428 21.72068,21.72068 l 10.266,2.59352 c 7.99667,2.0532 8.75311,2.26932 11.02243,3.99833 3.2419,2.48545 4.97091,6.05154 4.97091,10.266 0,4.32252 -1.62095,7.8886 -4.86284,10.80631 -3.56609,3.13383 -7.13217,4.32252 -13.07564,4.32252 -7.99667,0 -13.72402,-2.48545 -18.80298,-8.10473 -4.53865,-5.07897 -6.80798,-10.15793 -8.42892,-18.47879 l -4.64672,0 0.43225,30.79798 4.21447,0 4.86284,-7.34829 c 7.24022,5.94347 13.29176,8.10474 22.69325,8.10474 15.88528,0 26.04321,-9.29343 26.04321,-23.77389 0,-6.69991 -2.26933,-12.42726 -6.48379,-16.53365 -2.9177,-2.80965 -7.13216,-4.64672 -15.77721,-6.80798 l -11.56275,-2.9177 c -9.61762,-2.48546 -14.15627,-6.69992 -14.15627,-13.29177 0,-7.56441 6.1596,-12.75144 15.34496,-12.75144 7.56442,0 13.72401,3.24189 18.04654,9.40149 3.13383,4.43058 5.07897,8.96924 6.48379,14.48045 l 4.64671,0 -1.29676,-28.0964 z"
         style="font-style:normal;font-variant:normal;font-weight:500;font-stretch:normal;font-family:'Century Schoolbook L';-inkscape-font-specification:'Century Schoolbook L Medium'"
         id="path3408" />
      <path
         d="m 405.29982,699.20127 -64.72981,0 -1.62094,30.04155 4.64671,0 c 0.75644,-5.40316 1.72901,-9.50956 2.9177,-12.96757 2.80964,-7.88861 7.99667,-11.99501 15.34496,-11.99501 3.56609,0 5.07897,1.18869 5.07897,3.89027 l 0,55.76057 0,3.13383 c 0,4.53865 -0.97257,5.07896 -9.72568,5.07896 l -2.80964,0 0,5.07897 37.06565,0 0,-5.07897 -2.80964,0 c -8.64505,0 -9.61762,-0.54031 -9.61762,-5.07896 l 0,-3.13383 0,-55.76057 c 0,-2.70158 1.51288,-3.89027 5.07897,-3.89027 6.59185,0 11.88694,3.67415 14.58852,10.15793 1.62094,3.99834 2.70157,8.64505 3.56608,14.80465 l 4.64671,0 -1.62094,-30.04155 z"
         style="font-style:normal;font-variant:normal;font-weight:500;font-stretch:normal;font-family:'Century Schoolbook L';-inkscape-font-specification:'Century Schoolbook L Medium'"
         id="path3410" />
    </g>
    <g
       style="font-style:normal;font-weight:normal;font-size:79.15870667px;line-height:125%;font-family:Sans;letter-spacing:0px;word-spacing:0px;fill:#000000;fill-opacity:1;stroke:none;stroke-width:1px;stroke-linecap:butt;stroke-linejoin:miter;stroke-opacity:1"
       id="text3352">
      <path
         d="m 123.97752,855.90418 c -2.77055,0 -4.98699,2.21644 -4.98699,4.90784 0,2.77055 2.21644,4.987 4.90784,4.987 2.77055,0 4.98699,-2.21645 4.98699,-4.987 0,-2.6914 -2.21644,-4.90784 -4.90784,-4.90784 z m 0,-28.65545 c -2.77055,0 -4.98699,2.21644 -4.98699,4.90784 0,2.77055 2.21644,4.987 4.90784,4.987 2.77055,0 4.98699,-2.21645 4.98699,-4.987 0,-2.6914 -2.21644,-4.90784 -4.90784,-4.90784 z"
         style="font-style:normal;font-variant:normal;font-weight:500;font-stretch:normal;font-family:'Century Schoolbook L';-inkscape-font-specification:'Century Schoolbook L Medium'"
         id="path3413" />
      <path
         d="m 169.91678,839.20169 c 0,-4.987 -0.87074,-7.52007 -3.16634,-9.41988 -2.61224,-2.05813 -6.49102,-3.16635 -11.55718,-3.16635 -8.86577,0 -15.43594,4.19541 -15.43594,9.89484 0,3.00803 1.82065,4.90784 4.5912,4.90784 2.45392,0 4.27457,-1.66234 4.27457,-4.0371 0,-1.02906 -0.39579,-2.13728 -1.18738,-3.2455 -0.47495,-0.55412 -0.55411,-0.79159 -0.55411,-1.02907 0,-1.66233 3.24551,-3.08719 7.04513,-3.08719 2.45392,0 5.22447,0.79159 6.49101,1.97897 1.50401,1.26654 2.05813,3.16635 2.05813,6.72849 l 0,3.08719 c -8.31167,1.42486 -10.84475,2.05813 -14.72352,3.56214 -6.80765,2.53308 -10.13232,6.25354 -10.13232,11.24054 0,5.62027 4.51205,9.26157 11.47801,9.26157 5.46196,0 10.36979,-2.21645 13.77362,-6.25354 1.26654,4.03709 3.24551,5.62027 6.96597,5.62027 3.56214,0 7.2826,-2.29561 7.2826,-4.59121 0,-0.55411 -0.3958,-0.9499 -0.79159,-0.9499 -0.31664,0 -0.63327,0.0792 -1.18738,0.31663 -1.26654,0.47495 -1.58318,0.55411 -2.21645,0.55411 -2.21644,0 -3.00803,-1.50401 -3.00803,-5.46195 l 0,-15.9109 z m -7.44091,9.65736 c 0,4.74953 -0.23748,5.85775 -1.58318,7.91588 -1.97897,2.92887 -5.62027,4.90784 -9.02409,4.90784 -3.56214,0 -6.25354,-2.61224 -6.25354,-6.17438 0,-3.32467 1.66233,-5.69943 5.14532,-7.36176 2.45392,-1.10823 5.54111,-1.89981 11.71549,-2.92888 l 0,3.6413 z"
         style="font-style:normal;font-variant:normal;font-weight:500;font-stretch:normal;font-family:'Century Schoolbook L';-inkscape-font-specification:'Century Schoolbook L Medium'"
         id="path3415" />
      <path
         d="m 210.81338,865.24491 14.40689,-0.55411 0,-3.40383 -1.97897,0 c -4.35373,0 -4.987,-0.71243 -4.987,-5.77858 l 0,-27.70555 -14.88183,0.87074 0,3.40383 4.03709,0 c 2.92887,0 3.40382,0.55411 3.40382,3.95793 l 0,9.73653 c 0,4.51204 -0.47495,7.12428 -1.66233,9.73652 -1.66233,3.48298 -4.82868,5.54111 -8.70746,5.54111 -2.45392,0 -4.51204,-0.87075 -5.54111,-2.45392 -1.02906,-1.50402 -1.18738,-2.29561 -1.18738,-6.64934 l 0,-24.1434 -13.85277,0.87074 0,3.40383 3.00803,0 c 2.92887,0 3.40383,0.55411 3.40383,3.95793 l 0,17.09828 c 0,4.0371 0.31663,5.85775 1.50401,7.6784 2.13729,3.24551 5.9369,5.06616 10.68643,5.06616 5.22447,0 8.86577,-2.13729 12.34875,-7.20345 l 0,6.57018 z"
         style="font-style:normal;font-variant:normal;font-weight:500;font-stretch:normal;font-family:'Century Schoolbook L';-inkscape-font-specification:'Century Schoolbook L Medium'"
         id="path3417" />
      <path
         d="m 242.26537,827.80284 -14.0111,0.87074 0,3.40383 3.24551,0 c 2.92887,0 3.40383,0.55411 3.40383,3.95793 l 0,18.91893 0,3.16635 c 0,3.16635 -0.87075,3.72046 -6.01607,3.72046 l -0.31663,0 0,2.84972 21.13537,0 0,-2.84972 -1.50401,0 c -5.06616,0 -5.9369,-0.55411 -5.9369,-3.72046 l 0,-3.16635 0,-0.79158 c 0,-5.93691 1.10822,-11.95297 3.08719,-16.46501 1.8998,-4.43289 4.5912,-6.88681 7.91587,-7.2826 -1.10823,1.26654 -1.42486,2.05812 -1.42486,3.56214 0,2.53308 1.82065,4.35373 4.35373,4.35373 2.84971,0 4.82868,-2.13729 4.82868,-5.3828 0,-3.79961 -2.6914,-6.33269 -6.88681,-6.33269 -4.987,0 -9.34073,4.03709 -11.8738,11.00306 l 0,-9.81568 z"
         style="font-style:normal;font-variant:normal;font-weight:500;font-stretch:normal;font-family:'Century Schoolbook L';-inkscape-font-specification:'Century Schoolbook L Medium'"
         id="path3419" />
      <path
         d="m 297.46743,839.20169 c 0,-4.987 -0.87074,-7.52007 -3.16634,-9.41988 -2.61224,-2.05813 -6.49102,-3.16635 -11.55718,-3.16635 -8.86577,0 -15.43594,4.19541 -15.43594,9.89484 0,3.00803 1.82065,4.90784 4.5912,4.90784 2.45392,0 4.27457,-1.66234 4.27457,-4.0371 0,-1.02906 -0.39579,-2.13728 -1.18738,-3.2455 -0.47495,-0.55412 -0.55411,-0.79159 -0.55411,-1.02907 0,-1.66233 3.24551,-3.08719 7.04513,-3.08719 2.45391,0 5.22447,0.79159 6.49101,1.97897 1.50401,1.26654 2.05813,3.16635 2.05813,6.72849 l 0,3.08719 c -8.31167,1.42486 -10.84475,2.05813 -14.72352,3.56214 -6.80765,2.53308 -10.13232,6.25354 -10.13232,11.24054 0,5.62027 4.51205,9.26157 11.47801,9.26157 5.46195,0 10.36979,-2.21645 13.77362,-6.25354 1.26654,4.03709 3.24551,5.62027 6.96597,5.62027 3.56214,0 7.2826,-2.29561 7.2826,-4.59121 0,-0.55411 -0.3958,-0.9499 -0.79159,-0.9499 -0.31664,0 -0.63327,0.0792 -1.18738,0.31663 -1.26654,0.47495 -1.58318,0.55411 -2.21645,0.55411 -2.21644,0 -3.00803,-1.50401 -3.00803,-5.46195 l 0,-15.9109 z m -7.44091,9.65736 c 0,4.74953 -0.23748,5.85775 -1.58318,7.91588 -1.97897,2.92887 -5.62027,4.90784 -9.02409,4.90784 -3.56214,0 -6.25354,-2.61224 -6.25354,-6.17438 0,-3.32467 1.66233,-5.69943 5.14532,-7.36176 2.45392,-1.10823 5.54111,-1.89981 11.71549,-2.92888 l 0,3.6413 z"
         style="font-style:normal;font-variant:normal;font-weight:500;font-stretch:normal;font-family:'Century Schoolbook L';-inkscape-font-specification:'Century Schoolbook L Medium'"
         id="path3421" />
      <path
         d="m 321.5824,827.80284 -13.69446,0.87074 0,3.40383 2.84971,0 c 2.92888,0 3.40383,0.55411 3.40383,3.95793 l 0,18.91893 0,3.16635 c 0,3.16635 -0.87075,3.72046 -5.9369,3.72046 l -0.31664,0 0,2.84972 20.02715,0 0,-2.84972 -0.31663,0 c -5.14532,0 -6.01606,-0.55411 -6.01606,-3.72046 l 0,-3.16635 0,-8.2325 c 0,-3.87878 0.55411,-7.44092 1.42485,-9.26157 1.66234,-3.56214 5.22448,-6.01606 8.6283,-6.01606 2.05813,0 4.43289,1.18738 5.62027,2.77055 1.18738,1.66234 1.74149,4.11626 1.74149,7.91587 l 0,12.82371 0,3.16635 c 0,3.16635 -0.87074,3.72046 -6.01606,3.72046 l -0.31663,0 0,2.84972 20.02715,0 0,-2.84972 -0.31664,0 c -5.06615,0 -5.9369,-0.55411 -5.9369,-3.72046 l 0,-3.16635 0,-12.42791 c 0,-5.69943 -0.23747,-7.12429 -1.66233,-9.81568 -1.97897,-3.79962 -6.01606,-6.09522 -10.68643,-6.09522 -5.06615,0 -9.02409,2.37476 -12.50707,7.59923 l 0,-6.41185 z"
         style="font-style:normal;font-variant:normal;font-weight:500;font-stretch:normal;font-family:'Century Schoolbook L';-inkscape-font-specification:'Century Schoolbook L Medium'"
         id="path3423" />
      <path
         d="m 369.49938,827.80284 0,-15.67343 -3.2455,0 c -0.79159,10.29064 -4.27457,15.51511 -10.68643,15.99006 l 0,3.08719 6.49101,0 0,20.18547 c 0,5.54111 0.15832,7.52008 0.94991,9.34073 1.26654,3.32467 4.43289,5.14532 9.02409,5.14532 3.08719,0 5.77859,-0.94991 7.59924,-2.6914 2.61223,-2.53308 4.11625,-6.72849 4.11625,-11.08222 0,-0.47495 0,-1.02906 -0.0792,-1.82065 l -3.32466,0 c -0.23748,7.12428 -2.29561,10.76559 -6.17438,10.76559 -1.82065,0 -3.40383,-0.94991 -3.95794,-2.29561 -0.47495,-1.10822 -0.71243,-3.08719 -0.71243,-5.9369 l 0,-21.61033 11.63633,0 0,-3.40382 -11.63633,0 z"
         style="font-style:normal;font-variant:normal;font-weight:500;font-stretch:normal;font-family:'Century Schoolbook L';-inkscape-font-specification:'Century Schoolbook L Medium'"
         id="path3425" />
      <path
         d="m 391.79616,879.17684 c 7.04512,-4.82868 10.36979,-9.65736 10.36979,-15.19847 0,-4.74952 -2.61224,-7.83671 -6.49102,-7.83671 -2.92887,0 -5.14531,2.05812 -5.14531,4.74952 0,2.84971 2.13728,4.67036 5.38279,4.67036 0.31663,0 1.10822,0 1.26654,-0.0792 l 0.23747,0 c 0.3958,0 0.55411,0.23748 0.55411,0.71243 0,3.32467 -2.69139,7.04513 -7.99503,10.76559 l 1.82066,2.21644 z"
         style="font-style:normal;font-variant:normal;font-weight:500;font-stretch:normal;font-family:'Century Schoolbook L';-inkscape-font-specification:'Century Schoolbook L Medium'"
         id="path3427" />
    </g>
    <g
       style="font-style:normal;font-variant:normal;font-weight:normal;font-stretch:normal;font-size:40px;line-height:125%;font-family:STIX;-inkscape-font-specification:STIX;letter-spacing:0px;word-spacing:0px;fill:#000000;fill-opacity:1;stroke:none;stroke-width:1px;stroke-linecap:butt;stroke-linejoin:miter;stroke-opacity:1"
       id="text3356">
      <path
         d="m 138.99678,949.71894 -1.12,0 c -1.8,4.24 -3.52,5.28 -9.24,5.28 l -1.44,0 c -2.96,0 -4.04,-0.2 -4.04,-1.88 l 0,-9.72 6.04,0 c 3.44,0 4.04,0.52 4.52,3.88 l 0.92,0 0,-9.36 -0.92,0 c -0.48,3.16 -1.08,3.84 -4.52,3.84 l -6.04,0 0,-8.8 c 0,-1.28 0.28,-1.44 1.4,-1.44 l 5.24,0 c 4.64,0 5.56,0.6 6.16,4.2 l 1,0 -0.16,-5.72 -21.2,0 0,0.76 c 3,0.16 3.48,0.76 3.48,3.72 l 0,17.44 c 0,3.08 -0.4,3.6 -3.48,3.8 l 0,0.76 21.56,0 1.84,-6.76 z"
         style=""
         id="path3435" />
      <path
         d="m 158.32991,937.95894 -0.88,-8.52 -0.84,0 c -0.16,0.88 -0.6,1.36 -1.28,1.36 -0.4,0 -1.04,-0.16 -1.76,-0.48 -1.52,-0.64 -2.56,-0.88 -4.2,-0.88 -3.96,0 -6.96,2.64 -6.96,7 0,2.48 1.28,4.96 4.88,6.88 2.56,1.36 5.32,3.12 6.72,4.64 0.76,0.84 1.16,1.76 1.16,3.16 0,2.64 -1.96,4.48 -4.76,4.48 -3.8,0 -6.4,-2.24 -8.24,-7.08 l -0.88,0 1.16,8.48 0.88,0 c 0,-0.84 0.52,-1.32 1.12,-1.32 0.44,0 1.12,0.12 1.88,0.44 1.48,0.64 3.04,0.92 4.72,0.92 4.64,0 8.16,-3 8.16,-7.48 0,-3.04 -1.96,-5.36 -6.2,-7.84 -4.2,-2.44 -7.16,-4.12 -7.16,-6.84 0,-2.2 1.56,-3.8 4.04,-3.8 2.4,0 4.4,1.32 5.8,3.12 0.72,0.96 1.16,2 1.64,3.76 l 1,0 z"
         style=""
         id="path3437" />
      <path
         d="m 184.85241,936.79894 -0.28,-6.8 -22.48,0 -0.28,6.8 0.96,0 c 0.8,-4.4 1.88,-5.12 6.12,-5.12 l 2.4,0 0,19.88 c 0,3.52 -0.44,3.96 -3.76,4.16 l 0,0.76 11.68,0 0,-0.76 c -3.28,-0.16 -3.84,-0.64 -3.84,-3.68 l 0,-20.36 2.36,0 c 4.24,0 5.28,0.72 6.16,5.12 l 0.96,0 z"
         style=""
         id="path3439" />
      <path
         d="m 263.26553,940.35894 c 0,-1.2 -1,-2.24 -2.2,-2.24 -1.28,0 -2.24,0.96 -2.24,2.24 0,1.2 1.04,2.2 2.24,2.2 1.2,0 2.2,-1 2.2,-2.2 z m 0,14.36 c 0,-1.2 -1,-2.24 -2.2,-2.24 -1.28,0 -2.24,0.96 -2.24,2.24 0,1.2 1.04,2.2 2.24,2.2 1.2,0 2.2,-1 2.2,-2.2 z"
         style=""
         id="path3441" />
      <path
         d="m 345.63928,950.99894 -0.56,-0.24 c -1.32,2.24 -2.16,2.68 -3.84,2.68 l -9.36,0 6.6,-7.04 c 3.56,-3.76 5.12,-6.76 5.12,-9.92 0,-3.96 -2.88,-7.04 -7.4,-7.04 -4.92,0 -7.48,3.28 -8.32,7.96 l 0.84,0.2 c 1.6,-3.92 3,-5.2 5.88,-5.2 3.4,0 5.56,2 5.56,5.64 0,3.4 -1.44,6.44 -5.2,10.4 l -7.12,7.56 0,0.48 15.64,0 2.16,-5.48 z"
         style=""
         id="path3443" />
      <path
         d="m 365.71928,943.27894 c 0,-8.2 -3.64,-13.84 -8.88,-13.84 -6.44,0 -9.2,6.52 -9.2,13.6 0,6.56 2.2,14 9.04,14 6.52,0 9.04,-6.88 9.04,-13.76 z m -3.84,0.2 c 0,7.92 -1.8,12.52 -5.2,12.52 -3.44,0 -5.2,-4.56 -5.2,-12.68 0,-8.12 1.8,-12.84 5.12,-12.84 3.52,0 5.28,4.68 5.28,13 z"
         style=""
         id="path3445" />
      <path
         d="m 382.43928,956.47894 0,-0.6 c -3,0 -3.8,-0.72 -3.8,-2.44 l 0,-23.88 -0.36,-0.12 -7.16,3.64 0,0.56 1.08,-0.4 c 0.72,-0.28 1.4,-0.48 1.8,-0.48 0.84,0 1.2,0.6 1.2,1.96 l 0,17.96 c 0,2.2 -0.84,3.04 -3.8,3.2 l 0,0.6 11.04,0 z"
         style=""
         id="path3447" />
      <path
         d="m 404.19928,929.23894 -0.36,-0.28 c -0.64,0.84 -1,1.04 -1.92,1.04 l -8.28,0 -4.36,9.48 c 0,0 -0.04,0.12 -0.04,0.2 0,0.24 0.12,0.32 0.48,0.32 3.84,0 6.64,1.28 8.52,2.8 1.8,1.44 2.68,3.44 2.68,6 0,3.44 -2.6,6.76 -5.4,6.76 -0.8,0 -1.72,-0.36 -2.84,-1.28 -1.28,-1.04 -2.04,-1.24 -2.96,-1.24 -1.12,0 -1.8,0.52 -1.8,1.52 0,1.52 2.08,2.48 5.08,2.48 2.72,0 4.92,-0.6 6.8,-1.96 2.72,-2 3.92,-4.48 3.92,-8.32 0,-2.12 -0.36,-3.64 -1.4,-5.08 -2.28,-3.16 -4.28,-4.04 -10,-5.12 l 1.6,-3.4 7.76,0 c 0.64,0 0.96,-0.24 1.08,-0.52 l 1.44,-3.4 z"
         style=""
         id="path3449" />
    </g>
    <path
       style="fill:#000000;fill-opacity:1;fill-rule:evenodd;stroke:#000000;stroke-width:1.12170768px;stroke-linecap:butt;stroke-linejoin:miter;stroke-opacity:1"
       d="m 184.66601,652.77728 c 0,0 15.22316,-34.45246 20.03049,-45.66954 4.80731,-11.21707 7.61158,-20.03049 12.41891,-26.03963 4.80731,-6.00916 10.41585,-9.21403 16.42499,-8.81343 6.00916,0.40062 16.02441,6.81037 18.82867,8.0122 2.80427,1.20183 6.00915,4.0061 8.81342,3.6055 2.80427,-0.40062 10.81647,-4.0061 14.42195,-6.00916 3.6055,-2.00304 11.21708,-6.40975 17.62684,-6.40975 6.40976,0 13.62074,6.40975 16.02439,11.61768 2.40366,5.20793 10.81647,26.84086 13.62074,32.4494 2.80427,5.60854 14.02135,34.45246 14.02135,34.45246 0,0 -8.81342,4.0061 -22.43416,6.81037 -13.04333,2.68539 -34.85306,5.60853 -34.85306,5.60853 0,0 10.01525,0 28.04269,-2.40366 18.02745,-2.40366 30.04575,-4.40671 41.66344,-9.21403 11.61768,-4.80731 18.82866,-9.61463 23.23537,-7.21098 4.40671,2.40367 4.00609,8.41281 -6.40976,15.62379 -10.41585,7.21098 -57.28721,22.03354 -115.77626,22.83477 -58.48904,0.80121 -97.3482,-14.82257 -103.75795,-21.23232 -6.40976,-6.40977 -8.81343,-12.81953 -6.40976,-14.82257 2.40366,-2.00305 6.40976,-2.40367 11.21707,-1.60244 4.80733,0.80121 28.0427,10.01524 34.85306,11.21707 6.81037,1.20184 35.65428,7.21098 35.65428,7.21098 0,0 -16.8256,-5.20793 -20.8317,-6.00914 -4.00611,-0.80123 -16.42501,-4.0061 -16.42501,-4.0061 z"
       id="path3407"
       inkscape:connector-curvature="0"
       sodipodi:nodetypes="cssssssssscscssssssssscsc" />
  </g>
</svg>
